<svg width="40" height="40" viewBox="0 0 40 40" fill="none" xmlns="http://www.w3.org/2000/svg">
<path d="M23.4333 16.5167H25.1C25.3151 16.5168 25.5211 16.4302 25.6716 16.2765C25.8221 16.1229 25.9044 15.9151 25.9 15.7V13.0334C25.9014 12.6163 25.5822 12.2681 25.1666 12.2334C25.1666 12.2334 23.9833 12.1334 22.5333 12.1334C18.9666 12.1334 17 14.25 17 18.0834V21.0334H13.7166C13.5031 21.0288 13.2969 21.1116 13.1459 21.2626C12.9948 21.4137 12.912 21.6198 12.9166 21.8334V24.2667C12.912 24.4803 12.9948 24.6864 13.1459 24.8375C13.2969 24.9885 13.5031 25.0713 13.7166 25.0667H16.95V34.5H21.8166V25.0667H24.75C25.1528 25.0626 25.4924 24.7654 25.55 24.3667L25.85 21.9334C25.8805 21.703 25.8073 21.471 25.65 21.3C25.4973 21.1294 25.2789 21.0323 25.05 21.0334H21.8166V18.1834C21.8162 17.2821 22.5324 16.5437 23.4333 16.5167Z" fill="#F9FFFC"/>
<path fill-rule="evenodd" clip-rule="evenodd" d="M3.33331 19.85C3.33331 10.7281 10.7281 3.33337 19.85 3.33337C24.2305 3.33337 28.4316 5.07352 31.529 8.17099C34.6265 11.2685 36.3666 15.4695 36.3666 19.85C36.3666 28.9719 28.9719 36.3667 19.85 36.3667C10.7281 36.3667 3.33331 28.9719 3.33331 19.85ZM33.8666 19.85C33.8666 12.1088 27.5912 5.83337 19.85 5.83337C12.1164 5.8517 5.85163 12.1165 5.83331 19.85C5.83331 27.5912 12.1088 33.8667 19.85 33.8667C27.5912 33.8667 33.8666 27.5912 33.8666 19.85Z" fill="#F9FFFC"/>
</svg>
