<svg width="40" height="40" viewBox="0 0 40 40" fill="none" xmlns="http://www.w3.org/2000/svg">
<path fill-rule="evenodd" clip-rule="evenodd" d="M13.3333 3.33337H26.1666C31.6895 3.33337 36.1666 7.81053 36.1666 13.3334V26.1667C36.1666 31.6896 31.6895 36.1667 26.1666 36.1667H13.3333C7.81047 36.1667 3.33331 31.6896 3.33331 26.1667V13.3334C3.33331 7.81053 7.81047 3.33337 13.3333 3.33337ZM33.6666 13.3334C33.6575 9.19504 30.305 5.84254 26.1666 5.83337H13.3333C9.19498 5.84254 5.84248 9.19504 5.83331 13.3334V26.1667C5.84248 30.305 9.19498 33.6575 13.3333 33.6667H26.1666C30.305 33.6575 33.6575 30.305 33.6666 26.1667V13.3334Z" fill="#F9FFFC"/>
<path fill-rule="evenodd" clip-rule="evenodd" d="M12.5833 19.75C12.5925 15.7958 15.7957 12.5925 19.75 12.5834C23.7042 12.5925 26.9075 15.7958 26.9166 19.75C26.9166 23.7081 23.708 26.9167 19.75 26.9167C15.7919 26.9167 12.5833 23.7081 12.5833 19.75ZM24.4166 19.75C24.4166 17.1727 22.3273 15.0834 19.75 15.0834C17.1764 15.0925 15.0925 17.1765 15.0833 19.75C15.0833 22.3274 17.1727 24.4167 19.75 24.4167C22.3273 24.4167 24.4166 22.3274 24.4166 19.75Z" fill="#F9FFFC"/>
<path d="M25.85 10.8417C25.85 9.84299 26.6596 9.03337 27.6583 9.03337C28.657 9.03337 29.4666 9.84299 29.4666 10.8417C29.4666 11.8404 28.657 12.65 27.6583 12.65C26.6596 12.65 25.85 11.8404 25.85 10.8417Z" fill="#F9FFFC"/>
</svg>
