<svg width="40" height="40" viewBox="0 0 40 40" fill="none" xmlns="http://www.w3.org/2000/svg">
<path fill-rule="evenodd" clip-rule="evenodd" d="M12.5973 13.3334C10.8644 13.3479 9.13108 13.3448 7.39806 13.3351C6.90839 13.3322 6.6658 13.5013 6.66669 14.0586C6.67754 20.273 6.67333 26.4874 6.6746 32.7017C6.67473 32.9384 6.63849 33.1983 6.92983 33.306C6.94094 33.3439 13.0503 33.3416 13.0668 33.3039C13.3884 33.1787 13.3235 32.8871 13.3237 32.6351C13.3265 26.4646 13.3215 20.2939 13.3334 14.1233C13.3342 13.5633 13.1426 13.3288 12.5973 13.3334Z" fill="#F9FFFC"/>
<path fill-rule="evenodd" clip-rule="evenodd" d="M9.99996 5C8.15913 5 6.66669 6.49244 6.66669 8.33328C6.66669 10.1743 8.15913 11.6667 9.99996 11.6667C11.8409 11.6667 13.3334 10.1743 13.3334 8.33328C13.3334 6.49244 11.8409 5 9.99996 5Z" fill="#F9FFFC"/>
<path fill-rule="evenodd" clip-rule="evenodd" d="M34.9136 32.3754C34.9175 29.19 34.9337 26.0046 34.9079 22.8195C34.8965 21.4243 34.8464 20.0255 34.5532 18.6524C34.0726 16.4011 32.9909 14.6434 30.8423 13.8238C29.4088 13.2771 27.9102 13.2419 26.4133 13.4538C25.1559 13.6319 23.9975 14.1108 22.9423 15.0011C22.9423 14.6772 22.9411 14.4624 22.9425 14.2478C22.9457 13.766 22.7215 13.5482 22.2596 13.5504C20.618 13.5581 18.9764 13.5561 17.3347 13.5517C16.8828 13.5504 16.6661 13.7371 16.6667 14.245C16.6754 20.3573 16.6721 26.4697 16.6724 32.582C16.6724 32.8164 16.6415 33.0658 16.9128 33.1812C16.9414 33.219 22.8681 33.2332 22.8678 33.1946C23.2565 33.02 23.137 32.6515 23.1376 32.3515C23.1431 29.3368 23.125 26.322 23.1412 23.3073C23.1462 22.3646 23.181 21.4123 23.5881 20.5345C24.0706 19.4943 25.0692 19.0437 26.4756 19.2281C27.4432 19.3549 28.0609 20.01 28.2531 21.1515C28.3243 21.5732 28.3776 22.0043 28.3801 22.4315C28.3989 25.7476 28.4015 29.0637 28.4153 32.3798C28.4166 32.686 28.3247 33.0476 28.7191 33.2015C28.7056 33.245 34.6731 33.2186 34.6747 33.1765C34.9958 32.9893 34.9132 32.6628 34.9136 32.3754Z" fill="#F9FFFC"/>
</svg>
