<svg width="40" height="40" viewBox="0 0 40 40" fill="none" xmlns="http://www.w3.org/2000/svg">
<path d="M5.56665 7.89621C6.74181 9.20982 8.04865 10.3994 9.46665 11.4462C10.7903 12.3234 12.2108 13.0448 13.7 13.5962C14.8946 14.0336 16.1279 14.3573 17.3833 14.5629L19.05 14.6962C18.6468 12.8832 19.0085 10.9841 20.05 9.44621C21.1363 7.96933 22.7575 6.97628 24.5666 6.67955C25.9249 6.60161 27.2801 6.87725 28.5 7.47955C30.0333 8.37955 30.1666 8.71288 30.1666 8.71288C31.0744 8.549 31.9588 8.27474 32.8 7.89621L34.2333 7.12955C33.9813 7.99397 33.5304 8.78737 32.9166 9.44621C32.1 10.1962 31.35 10.7462 31.35 10.7462C32.0912 10.7366 32.8247 10.5955 33.5166 10.3295L35.1833 9.72955C34.6386 10.5202 34.013 11.2519 33.3166 11.9129C32.5166 12.5462 31.8666 13.1295 31.8666 13.1295C32.0676 16.5334 31.2866 19.9234 29.6166 22.8962C28.3632 25.314 26.5591 27.4035 24.35 28.9962C22.2008 30.5637 19.7301 31.634 17.1166 32.1295C15.0826 32.5012 13.0051 32.5742 10.95 32.3462C9.30065 32.0954 7.68488 31.6593 6.13331 31.0462C5.1182 30.7246 4.16961 30.222 3.33331 29.5629C5.24471 29.826 7.19117 29.6376 9.01665 29.0129C10.4223 28.4623 11.7547 27.7401 12.9833 26.8629C12.0528 26.8547 11.1359 26.6383 10.3 26.2295C9.26608 25.7412 8.38458 24.9807 7.74998 24.0295C7.47994 23.6228 7.24573 23.1934 7.04998 22.7462L6.93331 22.3295C7.38544 22.4408 7.85227 22.4802 8.31665 22.4462L9.84998 22.2129C8.51892 21.9647 7.30654 21.2853 6.39998 20.2795C5.41856 19.2192 4.8303 17.8544 4.73331 16.4129V15.7295C5.24941 16.0399 5.81219 16.2651 6.39998 16.3962C6.80093 16.5093 7.21693 16.5599 7.63331 16.5462C6.35558 15.7272 5.41046 14.4809 4.96665 13.0295C4.46827 11.3074 4.68454 9.45704 5.56665 7.89621Z" fill="#F9FFFC"/>
</svg>
