<svg width="30" height="30" viewBox="0 0 40 40" fill="none" xmlns="http://www.w3.org/2000/svg">
<path fill-rule="evenodd" clip-rule="evenodd" d="M33.8 6.36685L36.5667 14.0502C37.1686 15.5379 37.0198 17.2242 36.1667 18.5835C35.4407 19.6137 34.3903 20.3707 33.1833 20.7335V32.0668C33.1571 33.34 32.626 34.5505 31.707 35.432C30.788 36.3135 29.5565 36.7936 28.2833 36.7668H12.1833C10.8944 36.8163 9.63952 36.3467 8.69969 35.4633C7.75986 34.5798 7.21363 33.3564 7.18333 32.0668V20.9002C6.00992 20.6315 4.95302 19.995 4.16667 19.0835C3.03598 17.6721 2.75556 15.7602 3.43333 14.0835L6.18333 6.38352C6.8319 4.74137 8.43486 3.67716 10.2 3.71685H29.7833C31.5457 3.66961 33.15 4.72804 33.8 6.36685ZM22.2524 34.0502H22.2667V34.1002C22.2616 34.0836 22.2569 34.0669 22.2524 34.0502ZM22.2524 34.0502H18.0167C18.0325 33.9229 18.0325 33.7941 18.0167 33.6668V30.1502C18.0457 29.6214 18.2904 29.1276 18.6936 28.7842C19.0969 28.4409 19.6233 28.2779 20.15 28.3335C21.1974 28.2567 22.1115 29.0371 22.2 30.0835V33.6502C22.2 33.7853 22.2176 33.9198 22.2524 34.0502ZM28.2 34.0502H24.6833C24.6992 33.9229 24.6992 33.7941 24.6833 33.6668V30.1502C24.5928 27.696 22.538 25.7752 20.0833 25.8502C17.6222 25.7658 15.5571 27.6893 15.4667 30.1502V33.7168C15.4508 33.8441 15.4508 33.9729 15.4667 34.1002H12.1C10.8723 34.1568 9.82956 33.2109 9.76667 31.9835V20.8668C11.9873 20.5316 13.7707 18.8609 14.25 16.6668C14.837 19.3287 17.2801 21.1628 20 20.9835C22.6708 21.0955 25.0375 19.2765 25.6167 16.6668C26.0856 18.999 28.0171 20.755 30.3833 21.0002V32.0668C30.2814 33.2026 29.3402 34.0792 28.2 34.1002V34.0502ZM31.5333 18.0668C32.4169 18.0436 33.2355 17.5972 33.7333 16.8668V16.9169C34.0791 16.3342 34.1226 15.6205 33.85 15.0002L31.1 7.41685C30.856 6.92089 30.3344 6.62374 29.7833 6.66685H10.2C9.66984 6.61837 9.16069 6.886 8.9 7.35018L6.15 15.0002C5.7926 15.7075 5.85678 16.5547 6.31667 17.2002C6.73207 17.7106 7.3298 18.0394 7.98333 18.1168C8.19373 18.1414 8.40627 18.1414 8.61667 18.1168C9.8991 18.1869 11.0573 17.3546 11.4 16.1168C11.6543 14.708 12.8686 13.6751 14.3 13.6502C15.7468 13.6495 16.978 14.7038 17.2 16.1335C17.5393 17.3789 18.7126 18.21 20 18.1168C21.298 18.2034 22.4711 17.3464 22.7833 16.0835C23.0244 14.6646 24.2442 13.6201 25.6833 13.6002C27.1248 13.5982 28.354 14.6438 28.5833 16.0668C28.9229 17.3215 30.1036 18.1598 31.4 18.0668H31.5333Z" fill="black"/>
</svg>
