<svg width="40" height="42" viewBox="0 0 40 42" fill="none" xmlns="http://www.w3.org/2000/svg">
<path d="M20.1667 36.2778C19.3334 36.2778 18.3334 35.9306 17.6667 35.2361C6.83337 25.3403 6.66671 25.1667 6.66671 24.9931L6.50004 24.8194C4.50004 22.7361 3.33337 19.7847 3.33337 16.8333V16.4861C3.50004 10.2361 8.33337 5.375 14.3334 5.375C16.1667 5.375 18.6667 6.41667 20.1667 8.5C21.6667 6.41667 24.3334 5.375 26.1667 5.375C32.1667 5.375 36.8334 10.2361 37.1667 16.4861V16.8333C37.1667 19.9583 36 22.7361 34 24.9931L33.8334 25.1667C33.6667 25.3403 32.3334 26.5556 22.8334 35.4097C22 35.9306 21.1667 36.2778 20.1667 36.2778ZM9.16671 24.4722C9.83337 25.1667 13.1667 27.5972 19.3334 33.1528C19.8334 33.6736 20.5 33.6736 21 33.1528C27.3334 27.25 31 23.9514 31.8334 23.2569L32 23.0833C33.6667 21.3472 34.5 19.0903 34.5 16.8333V16.4861C34.3334 11.625 30.6667 7.97917 26 7.97917C24.8334 7.97917 22.5 8.84722 21.6667 10.7569C21.3334 11.4514 20.6667 11.7986 20 11.7986C19.3334 11.7986 18.6667 11.4514 18.3334 10.7569C17.5 9.02083 15.3334 7.97917 14 7.97917C9.50004 7.97917 5.66671 11.7986 5.50004 16.4861V17.0069C5.50004 19.2639 6.50004 21.5208 8.00004 23.0833L9.16671 24.4722Z" fill="#222A24"/>
</svg>
