<svg width="50" height="50" viewBox="0 0 50 50" fill="none" xmlns="http://www.w3.org/2000/svg">
<path fill-rule="evenodd" clip-rule="evenodd" d="M33.3333 18.2501C33.2653 21.6529 30.4869 24.3757 27.0833 24.3751C23.7204 24.3197 21.0043 21.6128 20.9375 18.2501V15.8959C20.9371 14.5092 21.4964 13.181 22.4886 12.2123C23.4808 11.2436 24.8221 10.7164 26.2083 10.7501H28.1667C29.535 10.7445 30.8493 11.2842 31.8188 12.2498C32.7883 13.2155 33.3334 14.5275 33.3333 15.8959V18.2501ZM26.1458 13.8126C24.9952 13.8126 24.0625 14.7453 24.0625 15.8959L24.1458 18.2501C24.1458 19.9184 25.4983 21.2709 27.1667 21.2709C28.835 21.2709 30.1875 19.9184 30.1875 18.2501V15.8959C30.1875 14.7453 29.2548 13.8126 28.1042 13.8126H26.1458Z" fill="#F9FFFC"/>
<path fill-rule="evenodd" clip-rule="evenodd" d="M48.9167 31.8751L49.1458 35.1251C49.3866 36.1422 49.1515 37.2136 48.507 38.0365C47.8625 38.8594 46.8785 39.3443 45.8333 39.3542H36.4792C35.6631 40.2241 34.526 40.7211 33.3333 40.7292H20.8333C19.5804 40.746 18.3809 40.2222 17.5417 39.2917C17.3478 39.3132 17.1522 39.3132 16.9583 39.2917H7.39584C6.37912 39.2534 5.43162 38.7666 4.80837 37.9624C4.18511 37.1582 3.95013 36.1192 4.16667 35.1251L4.47917 31.8751C4.78318 30.3243 6.12835 29.1961 7.70834 29.1667H16.6667C17.0406 29.146 17.4151 29.1955 17.7708 29.3126C18.5701 28.3141 19.7836 27.7381 21.0625 27.7501H33.1042C34.3082 27.7456 35.4553 28.2621 36.25 29.1667C36.3951 29.1462 36.5424 29.1462 36.6875 29.1667H45.6875C47.2675 29.1961 48.6127 30.3243 48.9167 31.8751ZM36.5625 36.1667H46C46.0638 36.044 46.0714 35.8997 46.0209 35.7709V35.3542L45.8125 32.3959L45.6875 32.2292H36.25C35.3693 32.2324 34.5286 31.8613 33.9375 31.2084C33.7308 30.9612 33.4264 30.8166 33.1042 30.8126H21.0625C20.7135 30.817 20.3848 30.9776 20.1667 31.2501C19.572 31.956 18.6939 32.3607 17.7709 32.3542C17.3929 32.356 17.018 32.2852 16.6667 32.1459H7.81252C7.68752 32.1459 7.68752 32.1876 7.68752 32.3126L7.47918 35.2709V35.6876C7.42214 35.8133 7.42214 35.9576 7.47918 36.0834H17.0417C17.2634 36.063 17.4866 36.063 17.7084 36.0834C18.555 36.0991 19.3562 36.4695 19.9167 37.1042C20.1465 37.3732 20.4796 37.5322 20.8333 37.5417H33.4167C33.771 37.5349 34.1052 37.3754 34.3334 37.1042C34.9191 36.5032 35.7233 36.165 36.5625 36.1667Z" fill="#F9FFFC"/>
<path fill-rule="evenodd" clip-rule="evenodd" d="M45.7708 21.3751C45.7708 23.9064 43.7188 25.9584 41.1875 25.9584C39.9683 25.9639 38.7972 25.4835 37.9331 24.6233C37.0691 23.7632 36.5833 22.5942 36.5833 21.3751V19.6251C36.5833 18.6029 36.9894 17.6225 37.7122 16.8997C38.435 16.177 39.4153 15.7709 40.4375 15.7709H41.9167C44.0453 15.7709 45.7708 17.4965 45.7708 19.6251V21.3751ZM39.9219 19.1928C39.7852 19.3295 39.7083 19.515 39.7083 19.7084V21.4584C39.7971 22.2023 40.428 22.7623 41.1771 22.7623C41.9262 22.7623 42.5571 22.2023 42.6458 21.4584V19.7084C42.6458 19.3057 42.3194 18.9792 41.9167 18.9792H40.4375C40.2441 18.9792 40.0587 19.056 39.9219 19.1928Z" fill="#F9FFFC"/>
<path fill-rule="evenodd" clip-rule="evenodd" d="M15.4627 24.6233C14.5987 25.4835 13.4275 25.9639 12.2083 25.9584C10.9928 25.9584 9.82698 25.4755 8.96744 24.616C8.1079 23.7564 7.62501 22.5906 7.62501 21.3751V19.6251C7.62501 17.4965 9.35058 15.7709 11.4792 15.7709H12.9583C15.0869 15.7709 16.8125 17.4965 16.8125 19.6251V21.3751C16.8125 22.5942 16.3268 23.7632 15.4627 24.6233ZM11.4792 18.9792C11.0765 18.9792 10.75 19.3057 10.75 19.7084V21.4584C10.8388 22.2023 11.4696 22.7623 12.2188 22.7623C12.9679 22.7623 13.5988 22.2023 13.6875 21.4584V19.7084C13.6875 19.3057 13.3611 18.9792 12.9583 18.9792H11.4792Z" fill="#F9FFFC"/>
</svg>
