<svg width="42" height="42" viewBox="0 0 42 42" fill="none" xmlns="http://www.w3.org/2000/svg">
<path fill-rule="evenodd" clip-rule="evenodd" d="M33.8938 29.0119L34.3021 30.951C34.6889 32.6276 34.3069 34.3893 33.2604 35.755C32.2139 37.1207 30.6122 37.9478 28.8928 38.0103H13.1072C11.3877 37.9478 9.78601 37.1207 8.7395 35.755C7.69299 34.3893 7.311 32.6276 7.69788 30.951L8.10612 29.0119C8.57567 26.3868 10.8322 24.4577 13.4984 24.4021H28.5015C31.1677 24.4577 33.4243 26.3868 33.8938 29.0119ZM28.8928 35.4418C29.7565 35.4318 30.5694 35.0316 31.1041 34.3531V34.3701C31.7602 33.5471 32.0158 32.4748 31.8015 31.4444L31.3933 29.5052C31.1668 28.0681 29.9553 26.992 28.5015 26.9366H13.4984C12.0446 26.992 10.8332 28.0681 10.6067 29.5052L10.1984 31.4444C9.98944 32.4694 10.2448 33.5343 10.8958 34.3531C11.4305 35.0316 12.2434 35.4318 13.1072 35.4418H28.8928Z" fill="#222A24"/>
<path fill-rule="evenodd" clip-rule="evenodd" d="M21.8505 21H20.1494C16.3916 21 13.3453 17.9537 13.3453 14.1958V9.70511C13.3407 8.18788 13.9415 6.73149 15.0143 5.65865C16.0871 4.5858 17.5435 3.98509 19.0608 3.98963H22.9391C24.4563 3.98509 25.9127 4.5858 26.9856 5.65865C28.0584 6.73149 28.6591 8.18788 28.6546 9.70511V14.1958C28.6546 17.9537 25.6083 21 21.8505 21ZM19.0608 6.54118C17.3134 6.54118 15.8968 7.95772 15.8968 9.70511V14.1958C15.8968 16.5445 17.8008 18.4484 20.1494 18.4484H21.8505C24.1991 18.4484 26.103 16.5445 26.103 14.1958V9.70511C26.103 8.86598 25.7697 8.06122 25.1764 7.46787C24.583 6.87452 23.7782 6.54118 22.9391 6.54118H19.0608Z" fill="#222A24"/>
</svg>
