<svg width="50" height="50" viewBox="0 0 50 50" fill="none" xmlns="http://www.w3.org/2000/svg">
<path fill-rule="evenodd" clip-rule="evenodd" d="M10.5853 31.2944C12.0204 28.6929 14.7581 27.0792 17.7292 27.0833C21.2442 27.1354 24.3293 29.4365 25.3812 32.7908C26.4331 36.1452 25.2145 39.7959 22.3586 41.8458C19.5027 43.8957 15.654 43.8823 12.8125 41.8125L9.79166 44.9583C9.49335 45.2584 9.08975 45.4303 8.66666 45.4375C8.26171 45.4417 7.87179 45.2843 7.58333 45C6.97405 44.39 6.97405 43.4017 7.58333 42.7917L10.6042 39.5833H10.8333C9.24522 37.0723 9.15017 33.8959 10.5853 31.2944ZM12.7083 35.2292C12.7083 38.0021 14.9562 40.25 17.7292 40.25V40.1875C20.4779 40.1877 22.7158 37.9777 22.75 35.2292C22.75 32.4562 20.5021 30.2083 17.7292 30.2083C14.9562 30.2083 12.7083 32.4562 12.7083 35.2292Z" fill="#F9FFFC"/>
<path fill-rule="evenodd" clip-rule="evenodd" d="M27.8123 4.95833L42.3956 19.5417C42.7431 19.8309 42.9482 20.2564 42.9581 20.7083V35.2917C42.9581 37.9162 41.9155 40.4333 40.0597 42.2891C38.2039 44.1449 35.6868 45.1875 33.0623 45.1875H27.0831C26.2202 45.1875 25.5206 44.4879 25.5206 43.625C25.5206 42.7621 26.2202 42.0625 27.0831 42.0625H32.9581C36.6976 42.0625 39.729 39.0311 39.729 35.2917V22.2708H30.8748C27.7154 22.2594 25.1571 19.7011 25.1456 16.5417V7.6875H20.4581C16.7235 7.69894 13.6987 10.7237 13.6873 14.4583V24.875C13.6873 25.7379 12.9878 26.4375 12.1248 26.4375C11.2619 26.4375 10.5623 25.7379 10.5623 24.875V14.4583C10.5457 11.823 11.5809 9.28985 13.4385 7.42048C15.2962 5.55112 17.8227 4.49995 20.4581 4.5H26.7081C27.1224 4.50036 27.5196 4.66522 27.8123 4.95833ZM28.2706 9.83333V16.5417C28.2706 17.9799 29.4366 19.1458 30.8748 19.1458H37.4998L28.2706 9.83333Z" fill="#F9FFFC"/>
</svg>
