<svg width="30" height="30" viewBox="0 0 30 30" fill="none" xmlns="http://www.w3.org/2000/svg">
<path fill-rule="evenodd" clip-rule="evenodd" d="M5.0772 9.58666C6.85995 5.30587 11.037 2.51255 15.6742 2.50016C20.6719 2.47384 25.1158 5.67507 26.6737 10.4239C28.2316 15.1727 26.5476 20.3842 22.5055 23.3235C18.4634 26.2628 12.9866 26.2584 8.94917 23.3127L5.34918 26.9127C4.98315 27.2782 4.3902 27.2782 4.02418 26.9127C3.65861 26.5466 3.65861 25.9537 4.02418 25.5877L7.51168 22.1002C4.25405 18.8 3.29445 13.8675 5.0772 9.58666ZM6.74864 17.7113C8.24548 21.3184 11.7688 23.6677 15.6742 23.6627V23.6127C20.9745 23.6059 25.2773 19.3254 25.3117 14.0252C25.3167 10.1198 22.9674 6.59647 19.3603 5.09962C15.7533 3.60278 11.5996 4.4276 8.8381 7.18909C6.07661 9.95058 5.2518 14.1042 6.74864 17.7113Z" fill="black"/>
</svg>
