<svg width="50" height="50" viewBox="0 0 50 50" fill="none" xmlns="http://www.w3.org/2000/svg">
<path d="M21.1668 19.3882C21.5826 19.3882 21.9808 19.5562 22.2709 19.854L26.1043 23.6665C26.3974 23.9592 26.5622 24.3564 26.5626 24.7707V27.6665C26.5626 28.5294 25.863 29.229 25.0001 29.229C24.1372 29.229 23.4376 28.5294 23.4376 27.6665V25.4165L20.0626 22.0623C19.4533 21.4523 19.4533 20.464 20.0626 19.854C20.3528 19.5562 20.751 19.3882 21.1668 19.3882Z" fill="#F9FFFC"/>
<path fill-rule="evenodd" clip-rule="evenodd" d="M37.5001 21.9373V20.9582C37.5094 17.8662 35.7085 15.0549 32.8959 13.7707V8.33317C32.8959 6.03198 31.0304 4.1665 28.7292 4.1665H21.2917C18.9905 4.1665 17.1251 6.03198 17.1251 8.33317V13.7707C14.3006 15.0445 12.4891 17.8598 12.5 20.9582V30.1873C12.4972 33.3064 14.3354 36.1332 17.1876 37.3957V43.2915C17.1876 45.5927 19.053 47.4582 21.3542 47.4582H28.7292C31.0304 47.4582 32.8959 45.5927 32.8959 43.2915V37.3957C35.7408 36.1247 37.5756 33.3032 37.5834 30.1873V29.229C38.4416 29.2178 39.1347 28.5248 39.1459 27.6665V23.4998C39.1465 23.0706 38.9705 22.66 38.6592 22.3644C38.3479 22.0689 37.9287 21.9144 37.5001 21.9373ZM20.3959 8.33317C20.3959 7.79239 20.8343 7.354 21.375 7.354H28.7292C29.27 7.354 29.7084 7.79239 29.7084 8.33317V13.0832H20.3959V8.33317ZM28.7917 44.2707C29.3325 44.2707 29.7709 43.8323 29.7709 43.2915L29.6876 38.0623H20.3126V43.2915C20.3126 43.8323 20.7509 44.2707 21.2917 44.2707H28.7917ZM34.5209 30.1873C34.5209 31.4692 34.0117 32.6986 33.1052 33.605C32.1988 34.5114 30.9694 35.0207 29.6876 35.0207H20.3959C17.7265 35.0207 15.5626 32.8567 15.5626 30.1873V20.9582C15.574 18.2969 17.7346 16.1456 20.3959 16.1457H29.625C32.2863 16.1456 34.4469 18.2969 34.4584 20.9582L34.5209 30.1873Z" fill="#F9FFFC"/>
</svg>
