<svg width="100" height="100" viewBox="0 0 100 100" fill="none" xmlns="http://www.w3.org/2000/svg">
<path fill-rule="evenodd" clip-rule="evenodd" d="M41.6666 33.333H58.3333C62.9357 33.333 66.6666 37.064 66.6666 41.6663V58.333C66.6666 62.9354 62.9357 66.6663 58.3333 66.6663H41.6666C37.0643 66.6663 33.3333 62.9354 33.3333 58.333V41.6663C33.3333 37.064 37.0643 33.333 41.6666 33.333ZM58.3333 60.4163C59.4839 60.4163 60.4166 59.4836 60.4166 58.333V41.6663C60.4166 40.5157 59.4839 39.583 58.3333 39.583H41.6666C40.5161 39.583 39.5833 40.5157 39.5833 41.6663V58.333C39.5833 59.4836 40.5161 60.4163 41.6666 60.4163H58.3333Z" fill="#222A24"/>
<path fill-rule="evenodd" clip-rule="evenodd" d="M79.1666 55.208H91.6666C93.3925 55.208 94.7916 56.6071 94.7916 58.333C94.7916 60.0589 93.3925 61.458 91.6666 61.458H79.1666V62.4997C79.1666 71.7044 71.7047 79.1663 62.5 79.1663H61.4583V91.6663C61.4583 93.3922 60.0592 94.7913 58.3333 94.7913C56.6074 94.7913 55.2083 93.3922 55.2083 91.6663V79.1663H44.7916V91.6663C44.7916 93.3922 43.3925 94.7913 41.6666 94.7913C39.9408 94.7913 38.5416 93.3922 38.5416 91.6663V79.1663H37.5C28.2952 79.1663 20.8333 71.7044 20.8333 62.4997V61.458H8.33331C6.60742 61.458 5.20831 60.0589 5.20831 58.333C5.20831 56.6071 6.60742 55.208 8.33331 55.208H20.8333V44.7913H8.33331C6.60742 44.7913 5.20831 43.3922 5.20831 41.6663C5.20831 39.9405 6.60742 38.5413 8.33331 38.5413H20.8333V37.4997C20.8333 28.2949 28.2952 20.833 37.5 20.833H38.5416V8.33301C38.5416 6.60712 39.9408 5.20801 41.6666 5.20801C43.3925 5.20801 44.7916 6.60712 44.7916 8.33301V20.833H55.2083V8.33301C55.2083 6.60712 56.6074 5.20801 58.3333 5.20801C60.0592 5.20801 61.4583 6.60712 61.4583 8.33301V20.833H62.5C71.7047 20.833 79.1666 28.2949 79.1666 37.4997V38.5413H91.6666C93.3925 38.5413 94.7916 39.9405 94.7916 41.6663C94.7916 43.3922 93.3925 44.7913 91.6666 44.7913H79.1666V55.208ZM62.5 72.9163C68.2529 72.9163 72.9166 68.2526 72.9166 62.4997V37.4997C72.9166 31.7467 68.2529 27.083 62.5 27.083H37.5C31.747 27.083 27.0833 31.7467 27.0833 37.4997V62.4997C27.0833 68.2526 31.747 72.9163 37.5 72.9163H62.5Z" fill="#222A24"/>
</svg>
