<svg width="24" height="24" viewBox="0 0 24 24" fill="none" xmlns="http://www.w3.org/2000/svg">
<path d="M3.29079 11.3089L9.12079 5.31473C9.50253 4.90743 10.1326 4.89365 10.5308 5.28389C10.7201 5.47694 10.8266 5.73973 10.8266 6.01388C10.8266 6.28803 10.7201 6.55082 10.5308 6.74387L6.41079 11.0107H17.0408C17.5931 11.0107 18.0408 11.4711 18.0408 12.0389C18.0408 12.6067 17.5931 13.0671 17.0408 13.0671H6.41079L10.5308 17.3031C10.8706 17.711 10.8477 18.3191 10.4784 18.6989C10.109 19.0786 9.51755 19.1021 9.12079 18.7528L3.29079 12.7586C2.90307 12.3576 2.90307 11.7099 3.29079 11.3089Z" fill="#F9FFFC"/>
<path d="M19.0408 17.1797V6.8981C19.0408 6.33026 19.4885 5.86994 20.0408 5.86994C20.5931 5.86994 21.0408 6.33026 21.0408 6.8981V17.1797C21.0408 17.7475 20.5931 18.2078 20.0408 18.2078C19.4885 18.2078 19.0408 17.7475 19.0408 17.1797Z" fill="#F9FFFC"/>
</svg>
